<?xml version="1.0" encoding="utf-8"?>
<!-- Generator: Adobe Illustrator 25.0.1, SVG Export Plug-In . SVG Version: 6.00 Build 0)  -->
<svg version="1.1" id="Layer_1" xmlns="http://www.w3.org/2000/svg" xmlns:xlink="http://www.w3.org/1999/xlink" x="0px" y="0px"
	 viewBox="0 0 248.79 249.34" style="enable-background:new 0 0 248.79 249.34;" xml:space="preserve">
<style type="text/css">
	.st0{fill:#FFFFFF;}
	.st1{fill:#010101;}
</style>
<g>
	<rect x="29.46" y="31.34" class="st0" width="193" height="185"/>
	<path class="st1" d="M35.81,0.02c2.19,0.14,4.38,0.13,6.56,0c2.19,0.17,4.37,0.16,6.56,0C51.12,0.16,53.31,0.15,55.5,0
		c2.19,0.14,4.37,0.14,6.56,0c2.19,0,4.37,0,6.56,0c2.19,0.14,4.37,0.14,6.56,0c2.19,0,4.37,0,6.56,0c2.19,0.14,4.37,0.14,6.56,0
		c2.19,0,4.37,0,6.56,0c2.19,0.14,4.37,0.14,6.56,0c2.19,0,4.37,0,6.56,0c2.19,0.14,4.37,0.14,6.56,0c2.19,0,4.37,0,6.56,0
		c2.19,0.19,4.37,0.18,6.56,0.01c2.19,0.14,4.38,0.13,6.56,0c2.19,0.17,4.37,0.16,6.56,0c2.19,0.14,4.38,0.13,6.56,0
		c2.19,0.17,4.37,0.16,6.56,0c2.19,0.14,4.38,0.13,6.56,0c2.19,0.17,4.37,0.16,6.56,0c2.19,0.14,4.38,0.13,6.56,0
		c2.19,0.17,4.37,0.16,6.56,0c2.19,0.14,4.38,0.13,6.56,0c2.19,0.17,4.37,0.16,6.56,0c2.19,0.14,4.38,0.13,6.56,0
		c2.19,0.17,4.37,0.16,6.56,0c2.19,0.14,4.37,0.13,6.56,0c2.19,0.18,4.38,0.25,6.58,0.02c4.42,0.13,8.82,0.44,13.07,1.79
		c2.21,0.78,4.28,1.86,6.28,3.07c0.67,0.55,1.33,1.1,2,1.65c1.75,1.79,3.25,3.79,4.56,5.92c0,0.27,0.07,0.51,0.31,0.66
		c0.81,2.17,1.58,4.35,2.13,6.6c0.29,2.17,0.57,4.34,0.86,6.51c0.01,2.19,0.02,4.38,0.03,6.57c0,2.18,0,4.37,0,6.55
		c0,2.19,0,4.38,0,6.57c0,2.18,0,4.37,0,6.55c0,2.19,0,4.38,0,6.57c0,2.18,0,4.37,0,6.55c0,2.19,0,4.38,0,6.57c0,2.18,0,4.37,0,6.55
		c0,2.19,0,4.38,0,6.57c0,2.18,0,4.37,0,6.55c0,2.19,0,4.38,0,6.57c0,2.18,0,4.37,0,6.55c0,2.19,0,4.38,0,6.57c0,2.18,0,4.37,0,6.55
		c0,2.19,0,4.38,0,6.57c0,2.18,0,4.37,0,6.55c0,2.19,0,4.38,0,6.57c0,2.18,0,4.37,0,6.55c0,2.19,0,4.38,0,6.57c0,2.18,0,4.37,0,6.55
		c0,2.19,0,4.38,0,6.57c0,2.18,0,4.37,0,6.55c0,2.19,0,4.38,0,6.57c0,2.18,0,4.37,0,6.55c0,2.19,0,4.38,0,6.57c0,2.18,0,4.37,0,6.55
		c0,2.19,0,4.38,0,6.57c0,2.18,0,4.37,0,6.55c0,2.19,0,4.38,0,6.57c0,2.18-0.01,4.37-0.01,6.55c-0.22,2.19-0.44,4.38-0.66,6.57
		c-0.59,2.02-1.19,4.05-1.78,6.07c-0.2,0.45-0.4,0.9-0.6,1.35c-1.2,2.06-2.6,3.97-4.23,5.7c-0.77,0.64-1.54,1.28-2.31,1.92
		c-2.1,1.2-4.25,2.28-6.54,3.05c-1.86,0.41-3.72,0.83-5.59,1.24c-0.33,0.02-0.65,0.04-0.98,0.06c-2.19,0.09-4.38,0.19-6.56,0.28
		c-2.19,0-4.37,0-6.56,0c-2.19-0.14-4.37-0.14-6.56,0c-2.19,0-4.37,0-6.56,0c-2.19-0.14-4.37-0.14-6.56,0c-2.19,0-4.37,0-6.56,0
		c-2.19-0.14-4.37-0.14-6.56,0c-2.19,0-4.37,0-6.56,0c-2.19-0.14-4.37-0.14-6.56,0c-2.19,0-4.37,0-6.56,0
		c-2.19-0.14-4.37-0.14-6.56,0c-2.19,0-4.37,0-6.56,0c-2.19-0.14-4.37-0.14-6.56,0c-2.19,0-4.37,0-6.56,0
		c-2.19-0.14-4.37-0.14-6.56,0c-2.19,0-4.37,0-6.56,0c-2.19-0.14-4.37-0.14-6.56,0c-2.19,0-4.37,0-6.56,0
		c-2.19-0.14-4.37-0.14-6.56,0c-2.19,0-4.37,0-6.56,0c-2.19-0.14-4.37-0.14-6.56,0c-2.19,0-4.37,0-6.56,0
		c-2.19-0.14-4.37-0.14-6.56,0c-2.19,0-4.37,0-6.56,0c-2.19-0.14-4.37-0.14-6.56,0c-2.19,0-4.37,0-6.56,0
		c-2.19-0.14-4.37-0.14-6.56,0c-2.19,0-4.37,0-6.56,0c-2.19-0.14-4.37-0.14-6.56,0c-2.19,0-4.37,0-6.56,0
		c-2.19-0.09-4.38-0.19-6.56-0.28c-0.32-0.03-0.65-0.05-0.97-0.08c-1.86-0.42-3.73-0.84-5.59-1.25c-2-0.77-3.95-1.65-5.82-2.68
		c-1.09-0.87-2.17-1.75-3.26-2.62c-1.34-1.55-2.59-3.16-3.69-4.9c-0.08-0.51-0.31-0.94-0.66-1.31c-0.67-2.18-1.35-4.37-2.02-6.55
		c-0.22-2.19-0.45-4.38-0.67-6.57c0-2.18,0-4.37-0.01-6.55c0-2.19,0-4.38,0-6.57c0-2.18,0-4.37,0-6.55c0-2.19,0-4.38,0-6.57
		c0-2.18,0-4.37,0-6.55c0-2.19,0-4.38,0-6.57c0-2.18,0-4.37,0-6.55c0-2.19,0-4.38,0-6.57c0-2.18,0-4.37,0-6.55c0-2.19,0-4.38,0-6.57
		c0-2.18,0-4.37,0-6.55c0-2.19,0-4.38,0-6.57c0-2.18,0-4.37,0-6.55c0-2.19,0-4.38,0-6.57c0-2.18,0-4.37,0-6.55c0-2.19,0-4.38,0-6.57
		c0-2.18,0-4.37,0-6.55c0-2.19,0-4.38,0-6.57c0-2.18,0-4.37,0-6.55c0-2.19,0-4.38,0-6.57c0-2.18,0-4.37,0-6.55c0-2.19,0-4.38,0-6.57
		c0-2.18,0-4.37,0-6.55c0-2.19,0-4.38,0-6.57c0-2.18,0-4.37,0-6.55c0-2.19,0-4.38,0-6.57c0-2.18,0-4.37,0-6.55c0-2.19,0-4.38,0-6.57
		c0-2.18,0-4.37,0-6.55c0.01-2.19,0.02-4.38,0.03-6.57c0.3-2.17,0.6-4.34,0.9-6.5c0.56-2.23,1.32-4.39,2.18-6.52l-0.09-0.1l0.09,0.1
		c1.35-2.43,3-4.63,4.97-6.6c0.67-0.55,1.34-1.1,2.01-1.65c4.02-2.68,8.58-3.84,13.26-4.66c1.98,0.17,3.94-0.19,5.91-0.28
		C31.44,0.19,33.63,0.18,35.81,0.02z M53.22,89.69c0.1,0.74-0.24,1.39-0.44,2.06c-5.84,20.25-11.68,40.5-17.56,60.73
		c-0.35,1.21-0.29,1.67,1.18,1.64c4.7-0.09,9.4,0.04,14.1-0.08c1.53-0.04,1.75,0.46,1.73,1.82c-0.07,7.27-0.03,14.54-0.03,21.81
		c0,8.36-0.01,16.73,0.01,25.09c0.01,3.04,1.72,5.38,4.43,6.17c4.64,1.37,8.66-1.62,8.66-6.5c0.02-15.53,0.01-31.05,0.01-46.58
		c0-0.33,0.03-0.66-0.01-0.98c-0.07-0.68,0.27-0.85,0.87-0.8c0.43,0.04,0.88,0.06,1.31,0c1.29-0.18,1.76,0.19,1.74,1.65
		c-0.09,7.32-0.04,14.65-0.03,21.98c0,8.42-0.03,16.84,0.03,25.26c0.02,3.69,2.65,6.21,6.35,6.31c3.55,0.09,6.28-2.32,6.59-5.9
		c0.09-1.09,0.07-2.18,0.07-3.28c0-14.81,0.03-29.63-0.03-44.44c-0.01-1.36,0.41-1.61,1.64-1.59c4.76,0.07,9.51-0.01,14.27,0.06
		c1.36,0.02,1.49-0.34,1.13-1.57c-4.39-14.94-8.73-29.9-13.08-44.85c-1.63-5.59-3.26-11.19-4.88-16.79c-0.12-0.42-0.57-0.92,0-1.29
		c0.97-0.62,2.8,0.19,3.15,1.34c3.15,10.54,6.28,21.08,9.45,31.61c0.56,1.87,0.92,3.82,1.93,5.54c1.22,2.07,3.02,3.11,5.45,2.85
		c2.42-0.26,3.99-1.63,4.8-3.88c0.6-1.66,0.42-3.34-0.08-4.99c-3.99-13.13-7.94-26.28-12.02-39.38c-2.37-7.61-9.63-12.8-17.57-12.83
		c-6.07-0.02-12.14-0.02-18.2,0c-8.48,0.02-15.35,5.17-17.81,13.28c-2.91,9.59-5.88,19.16-8.74,28.76
		c-1.21,4.07-2.76,8.05-3.51,12.24c-0.65,3.67,2.09,6.81,5.72,6.8c2.84,0,4.84-1.75,5.88-5.21c3.38-11.32,6.75-22.65,10.12-33.98
		C50.56,89.4,50.56,89.39,53.22,89.69z M198.85,147.15c0-17.82,0-35.65,0-53.47c0-0.44,0.01-0.87,0-1.31c0-0.35,0.07-0.58,0.5-0.69
		c1.52-0.41,2.23,0.08,2.23,1.62c0,12.25,0,24.49,0.01,36.74c0,0.82,0.05,1.64,0.19,2.45c0.52,3.16,3.37,5.24,6.53,4.82
		c3.39-0.45,5.29-2.85,5.3-6.72c0.01-13.94,0.01-27.88-0.01-41.82c0-1.14-0.12-2.29-0.28-3.42c-1.19-8.75-8.61-15.39-17.41-15.45
		c-9.9-0.07-19.79-0.01-29.69-0.02c-2.04,0-4.01,0.4-5.9,1.14c-7.16,2.82-11.36,9.3-11.37,17.67c-0.03,13.94-0.01,27.88-0.01,41.82
		c0,0.55,0.01,1.1,0.07,1.64c0.31,2.7,2.31,4.71,5.01,5.06c4.15,0.54,6.94-2.09,6.94-6.62c0.01-12.47,0.02-24.93-0.02-37.4
		c0-1.08,0.2-1.48,1.4-1.55c1.55-0.09,1.47,0.7,1.47,1.77c-0.01,35.26-0.01,70.53-0.01,105.79c0,0.71-0.02,1.42,0.04,2.13
		c0.43,5.43,4.83,8.63,10.1,7.34c3.76-0.92,5.93-3.93,5.93-8.33c0.01-20.5,0-41,0-61.51c0-0.38,0.02-0.77-0.01-1.15
		c-0.05-0.66,0.27-0.79,0.88-0.84c1.33-0.11,1.99,0.08,1.98,1.77c-0.07,20.23-0.05,40.46-0.04,60.69c0,0.93,0.01,1.86,0.1,2.78
		c0.4,3.73,3.42,6.51,7.41,6.86c3.71,0.33,7.18-1.94,8.22-5.41c0.38-1.26,0.44-2.57,0.44-3.89
		C198.84,182.14,198.85,164.64,198.85,147.15z M117.32,123.84c0,16.13,0,32.25,0,48.38c0,11.53,0.02,23.07-0.02,34.6
		c0,1.22,0.27,1.57,1.53,1.54c3.39-0.1,6.78-0.02,10.17-0.04c1.36-0.01,3.17,0.45,3.95-0.23c0.92-0.81,0.29-2.67,0.29-4.07
		c0.02-54.23,0.01-108.45,0.05-162.68c0-1.35-0.28-1.74-1.67-1.7c-4.15,0.1-8.31,0.12-12.46,0c-1.54-0.04-1.86,0.42-1.86,1.88
		C117.33,68.96,117.32,96.4,117.32,123.84z M81.23,52.21c0.14-7.6-5.96-13.93-13.6-14.1C60.1,37.93,53.65,44.04,53.5,51.5
		c-0.16,7.92,5.83,14.28,13.58,14.42C74.78,66.06,81.09,59.95,81.23,52.21z M167.34,52.01c0,7.71,6.25,13.94,13.95,13.92
		c7.58-0.03,13.84-6.32,13.83-13.9c-0.02-7.69-6.31-13.97-13.98-13.92C173.52,38.15,167.34,44.37,167.34,52.01z"/>
</g>
</svg>
